USFL
nRows=128
nColumns=2
inDegrees=yes
endheader
time	tib_ant_r	
2.375	 56.416790	
2.4375	 56.424288	
2.5	 56.401559	
2.5625	 56.384728	
2.625	 56.396284	
2.6875	 56.395492	
2.75	 56.362532	
2.8125	 56.356798	
2.875	 56.370915	
2.9375	 56.406100	
3	 56.406532	
3.0625	 56.373991	
3.125	 56.369975	
3.1875	 56.326548	
3.25	 56.207918	
3.3125	 56.161348	
3.375	 56.132573	
3.4375	 56.249022	
3.5	 56.387644	
3.5625	 56.424017	
3.625	 56.334252	
3.6875	 56.225739	
3.75	 56.278205	
3.8125	 56.297184	
3.875	 56.200853	
3.9375	 56.220636	
4	 56.223262	
4.0625	 56.182247	
4.125	 56.160345	
4.1875	 56.113146	
4.25	 56.122195	
4.3125	 56.135553	
4.375	 56.077628	
4.4375	 56.037902	
4.5	 55.994496	
4.5625	 55.985850	
4.625	 55.857361	
4.6875	 55.653759	
4.75	 55.279955	
4.8125	 55.235116	
4.875	 55.482049	
4.9375	 55.720323	
5	 56.115546	
5.0625	 51.520143	
5.125	 51.089607	
5.1875	 51.056114	
5.25	 51.093604	
5.3125	 50.932853	
5.375	 51.045777	
5.4375	 51.166868	
5.5	 51.105647	
5.5625	 51.270193	
5.625	 51.479444	
5.6875	 51.330156	
5.75	 51.257500	
5.8125	 51.381115	
5.875	 50.969199	
5.9375	 50.736450	
6	 50.823158	
6.0625	 50.663479	
6.125	 50.544537	
6.1875	 50.502255	
6.25	 50.507150	
6.3125	 50.561047	
6.375	 50.636507	
6.4375	 50.487135	
6.5	 50.346019	
6.5625	 50.298865	
6.625	 50.344746	
6.6875	 50.350201	
6.75	 50.339298	
6.8125	 50.306342	
6.875	 50.270617	
6.9375	 50.240568	
7	 50.278927	
7.0625	 50.324488	
7.125	 50.320593	
7.1875	 50.278076	
7.25	 50.224760	
7.3125	 50.192403	
7.375	 50.144842	
7.4375	 50.061504	
7.5	 50.110322	
7.5625	 50.018686	
7.625	 50.035983	
7.6875	 49.977184	
7.75	 50.037457	
7.8125	 50.085452	
7.875	 50.112938	
7.9375	 50.114877	
8	 50.099022	
8.0625	 50.042769	
8.125	 50.120285	
8.1875	 50.165979	
8.25	 50.120425	
8.3125	 50.152928	
8.375	 50.124426	
8.4375	 50.092382	
8.5	 50.238451	
8.5625	 50.386034	
8.625	 50.374690	
8.6875	 50.592430	
8.75	 50.649862	
8.8125	 50.637407	
8.875	 50.698258	
8.9375	 50.682105	
9	 50.637336	
9.0625	 50.754650	
9.125	 50.854084	
9.1875	 50.822549	
9.25	 50.967530	
9.3125	 50.975458	
9.375	 50.960194	
9.4375	 51.268299	
9.5	 51.680512	
9.5625	 51.666266	
9.625	 52.473042	
9.6875	 52.891634	
9.75	 52.658341	
9.8125	 52.674576	
9.875	 52.362663	
9.9375	 52.345078	
10	 52.419234	
10.0625	 52.758194	
10.125	 52.787836	
10.1875	 52.843210	
10.25	 53.025363	
10.3125	 53.154220	
